<svg width="20" height="20" viewBox="0 0 20 20" fill="none" xmlns="http://www.w3.org/2000/svg">
<path d="M18.3333 11H1.66667C1.22464 11 0.800716 11.2107 0.488155 11.5858C0.175595 11.9609 0 12.4696 0 13V18C0 18.5304 0.175595 19.0391 0.488155 19.4142C0.800716 19.7893 1.22464 20 1.66667 20H18.3333C18.7754 20 19.1993 19.7893 19.5118 19.4142C19.8244 19.0391 20 18.5304 20 18V13C20 12.4696 19.8244 11.9609 19.5118 11.5858C19.1993 11.2107 18.7754 11 18.3333 11ZM18.3333 18H1.66667V13H18.3333V18ZM18.3333 0H1.66667C1.22464 0 0.800716 0.210714 0.488155 0.585786C0.175595 0.960859 0 1.46957 0 2V7C0 7.53043 0.175595 8.03914 0.488155 8.41421C0.800716 8.78929 1.22464 9 1.66667 9H18.3333C18.7754 9 19.1993 8.78929 19.5118 8.41421C19.8244 8.03914 20 7.53043 20 7V2C20 1.46957 19.8244 0.960859 19.5118 0.585786C19.1993 0.210714 18.7754 0 18.3333 0ZM18.3333 7H1.66667V2H18.3333V7Z" fill="black"/>
</svg>
