<svg width="26" height="26" viewBox="0 0 26 26" fill="none" xmlns="http://www.w3.org/2000/svg">
<g clip-path="url(#clip0_1776_84472)">
<path d="M13.5 10.6953V15.6071H20.3311C20.0311 17.1867 19.131 18.5242 17.7809 19.4236L21.9004 22.6174C24.3005 20.4037 25.6852 17.1522 25.6852 13.2897C25.6852 12.3904 25.6044 11.5255 25.4544 10.6955L13.5 10.6953Z" fill="#4285F4"/>
<path d="M6.38769 15.4141L5.45861 16.1247L2.16992 18.6843C4.25848 22.8236 8.53915 25.683 13.5009 25.683C16.9279 25.683 19.8011 24.5531 21.9013 22.6161L17.7818 19.4223C16.651 20.1832 15.2086 20.6445 13.5009 20.6445C10.2008 20.6445 7.39685 18.4192 6.39288 15.4214L6.38769 15.4141Z" fill="#34A853"/>
<path d="M2.1701 7.31641C1.30472 9.02278 0.808594 10.9483 0.808594 13.0006C0.808594 15.0529 1.30472 16.9785 2.1701 18.6848C2.1701 18.6963 6.39347 15.4103 6.39347 15.4103C6.13961 14.6493 5.98956 13.8423 5.98956 13.0005C5.98956 12.1587 6.13961 11.3516 6.39347 10.5907L2.1701 7.31641Z" fill="#FBBC05"/>
<path d="M13.5012 5.36654C15.3705 5.36654 17.0321 6.0122 18.3591 7.25746L21.9939 3.62556C19.7899 1.57325 16.9283 0.316406 13.5012 0.316406C8.53941 0.316406 4.25848 3.16431 2.16992 7.31512L6.39316 10.5896C7.39699 7.59181 10.201 5.36654 13.5012 5.36654Z" fill="#EA4335"/>
</g>
<defs>
<clipPath id="clip0_1776_84472">
<rect width="24.878" height="25.3659" fill="white" transform="translate(0.804688 0.316406)"/>
</clipPath>
</defs>
</svg>
