<svg width="18" height="22" viewBox="0 0 18 22" fill="none" xmlns="http://www.w3.org/2000/svg">
<path d="M17.2349 7.95599C17.1133 8.05039 14.9658 9.2608 14.9658 11.9522C14.9658 15.0653 17.6984 16.1667 17.7802 16.1939C17.7676 16.2611 17.3461 17.7022 16.3394 19.1707C15.4418 20.4629 14.5044 21.753 13.0783 21.753C11.6522 21.753 11.2852 20.9244 9.63894 20.9244C8.03459 20.9244 7.46416 21.7803 6.15971 21.7803C4.85526 21.7803 3.94508 20.5846 2.89859 19.1161C1.68642 17.3918 0.707031 14.7129 0.707031 12.1704C0.707031 8.09234 3.35787 5.92954 5.96677 5.92954C7.35301 5.92954 8.50855 6.83997 9.37889 6.83997C10.2073 6.83997 11.4991 5.875 13.0762 5.875C13.6739 5.875 15.8214 5.92954 17.2349 7.95599ZM12.3275 4.14853C12.9797 3.37446 13.4411 2.3004 13.4411 1.22634C13.4411 1.0774 13.4285 0.926358 13.4013 0.804688C12.3401 0.844545 11.0776 1.51164 10.3163 2.3948C9.71863 3.07448 9.16078 4.14853 9.16078 5.23728C9.16078 5.4009 9.18804 5.56453 9.20063 5.61697C9.26773 5.62956 9.37679 5.64424 9.48584 5.64424C10.438 5.64424 11.6355 5.00652 12.3275 4.14853Z" fill="white"/>
</svg>
