<svg width="16" height="27" viewBox="0 0 16 27" fill="none" xmlns="http://www.w3.org/2000/svg">
<path d="M8.1123 0.152344C4.33282 0.152344 1.26902 3.23195 1.26902 7.03072C1.26902 10.8296 4.33282 13.9094 8.1123 13.9094C11.8918 13.9094 14.9556 10.8296 14.9556 7.03072C14.9556 3.23195 11.8918 0.152344 8.1123 0.152344ZM8.1123 9.87428C6.54999 9.87428 5.28344 8.60114 5.28344 7.03082C5.28344 5.4605 6.54999 4.18745 8.1123 4.18745C9.67461 4.18745 10.9412 5.4605 10.9412 7.03082C10.9412 8.60114 9.67461 9.87428 8.1123 9.87428Z" fill="white"/>
<path d="M10.5283 19.3825C13.2679 18.8215 14.9096 17.5175 14.9965 17.4475C15.7982 16.8013 15.927 15.6242 15.284 14.8183C14.6412 14.0125 13.4702 13.8831 12.6684 14.5292C12.6514 14.543 10.9004 15.8931 8.01936 15.8951C5.1384 15.8931 3.35036 14.543 3.33342 14.5292C2.53156 13.8831 1.36059 14.0125 0.717762 14.8183C0.0748402 15.6242 0.203621 16.8013 1.00529 17.4475C1.09333 17.5185 2.80283 18.8565 5.61925 19.4043L1.69405 23.5275C0.98071 24.2711 1.00216 25.455 1.74193 26.172C2.10301 26.5219 2.56838 26.6959 3.03336 26.6959C3.52086 26.6959 4.00788 26.5044 4.37297 26.1238L8.01946 22.2194L12.0343 26.1491C12.7617 26.8791 13.9396 26.8779 14.6657 26.147C15.3918 25.416 15.3909 24.2319 14.6636 23.5021L10.5283 19.3825Z" fill="white"/>
</svg>
