<svg width="26" height="26" viewBox="0 0 26 26" fill="none" xmlns="http://www.w3.org/2000/svg">
<path d="M16.5651 12.8164C16.5651 13.5603 16.3445 14.2875 15.9312 14.906C15.5179 15.5246 14.9305 16.0067 14.2432 16.2913C13.5559 16.576 12.7997 16.6505 12.0701 16.5054C11.3405 16.3603 10.6703 16.002 10.1442 15.476C9.61822 14.95 9.26 14.2798 9.11487 13.5502C8.96974 12.8206 9.04423 12.0643 9.32891 11.377C9.61359 10.6898 10.0957 10.1023 10.7142 9.68904C11.3327 9.27575 12.0599 9.05516 12.8039 9.05516C13.801 9.05648 14.7569 9.45318 15.462 10.1583C16.1671 10.8633 16.5638 11.8193 16.5651 12.8164ZM12.8039 0.316406C10.8481 0.318371 8.92005 0.779229 7.1748 1.66193C5.42955 2.54462 3.91578 3.82452 2.75519 5.39872C1.59461 6.97291 0.819603 8.79748 0.492489 10.7257C0.165374 12.6539 0.29528 14.632 0.87176 16.5009C1.44824 18.3698 2.45521 20.0773 3.8117 21.4862C5.16819 22.8951 6.83635 23.966 8.68205 24.6129C10.5278 25.2598 12.4995 25.4645 14.4387 25.2107C16.378 24.9568 18.2306 24.2515 19.8476 23.1514L19.8839 23.1264L18.1989 21.1677L18.1714 21.1864C16.2332 22.4311 13.9233 22.9649 11.6355 22.6968C9.34774 22.4287 7.22384 21.3752 5.62604 19.716C4.02824 18.0569 3.05549 15.8948 2.8737 13.5986C2.6919 11.3024 3.31232 9.01416 4.62915 7.12426C5.94597 5.23436 7.87764 3.8598 10.0947 3.23502C12.3118 2.61023 14.6769 2.77392 16.7868 3.69816C18.8967 4.6224 20.6206 6.24994 21.6645 8.30323C22.7084 10.3565 23.0077 12.7084 22.5114 14.9577C22.4555 15.4172 22.2301 15.8394 21.8794 16.1415C21.5287 16.4437 21.0779 16.6041 20.6151 16.5914C20.4033 16.5769 20.1964 16.5204 20.0066 16.4252C19.8168 16.33 19.6479 16.198 19.5096 16.0369C19.3712 15.8758 19.2664 15.6888 19.201 15.4868C19.1356 15.2848 19.1111 15.0717 19.1288 14.8602V12.8164C19.1312 11.3496 18.6245 9.92746 17.6953 8.7926C16.766 7.65774 15.4717 6.88052 14.0332 6.59355C12.5948 6.30659 11.1013 6.52767 9.80773 7.21907C8.51412 7.91047 7.50051 9.02934 6.93987 10.3848C6.37923 11.7402 6.30631 13.2481 6.73354 14.6513C7.16077 16.0545 8.06168 17.266 9.28254 18.079C10.5034 18.892 11.9685 19.2561 13.428 19.1093C14.8874 18.9625 16.2506 18.3138 17.2851 17.2739C17.6246 17.807 18.0839 18.2535 18.6265 18.5777C19.169 18.9019 19.7798 19.0949 20.4101 19.1414C20.5213 19.1514 20.6351 19.1552 20.7476 19.1552C21.664 19.153 22.5548 18.8524 23.2851 18.2989C24.0588 17.6951 24.6247 16.8648 24.9039 15.9239C24.9526 15.7639 25.0438 15.3977 25.0451 15.3964V15.3827C25.2313 14.5403 25.3182 13.679 25.3039 12.8164C25.2986 9.50282 23.9799 6.32647 21.6368 3.98341C19.2938 1.64035 16.1174 0.321695 12.8039 0.316406Z" fill="#FF9E00"/>
</svg>
