<svg width="21" height="15" viewBox="0 0 21 15" fill="none" xmlns="http://www.w3.org/2000/svg">
<path d="M20.5752 5.24219L19.372 2.23438C19.27 1.97989 19.0938 1.76192 18.8664 1.60869C18.6391 1.45547 18.3709 1.37406 18.0967 1.375H15.125V0.6875C15.125 0.505164 15.0526 0.330295 14.9236 0.201364C14.7947 0.072433 14.6198 0 14.4375 0H1.375C1.01033 0 0.660591 0.144866 0.402728 0.402728C0.144866 0.660591 0 1.01033 0 1.375V11C0 11.3647 0.144866 11.7144 0.402728 11.9723C0.660591 12.2301 1.01033 12.375 1.375 12.375H2.83594C2.98739 12.9665 3.33142 13.4908 3.81378 13.8653C4.29613 14.2397 4.88938 14.4429 5.5 14.4429C6.11062 14.4429 6.70387 14.2397 7.18622 13.8653C7.66858 13.4908 8.01261 12.9665 8.16406 12.375H12.4609C12.6124 12.9665 12.9564 13.4908 13.4388 13.8653C13.9211 14.2397 14.5144 14.4429 15.125 14.4429C15.7356 14.4429 16.3289 14.2397 16.8112 13.8653C17.2936 13.4908 17.6376 12.9665 17.7891 12.375H19.25C19.6147 12.375 19.9644 12.2301 20.2223 11.9723C20.4801 11.7144 20.625 11.3647 20.625 11V5.5C20.6252 5.41165 20.6083 5.32409 20.5752 5.24219ZM15.125 2.75H18.0967L18.9217 4.8125H15.125V2.75ZM1.375 1.375H13.75V6.875H1.375V1.375ZM5.5 13.0625C5.22805 13.0625 4.96221 12.9819 4.73609 12.8308C4.50997 12.6797 4.33374 12.4649 4.22967 12.2137C4.1256 11.9624 4.09837 11.686 4.15142 11.4193C4.20447 11.1525 4.33543 10.9075 4.52773 10.7152C4.72003 10.5229 4.96503 10.392 5.23175 10.3389C5.49847 10.2859 5.77494 10.3131 6.02619 10.4172C6.27744 10.5212 6.49218 10.6975 6.64327 10.9236C6.79436 11.1497 6.875 11.4156 6.875 11.6875C6.875 12.0522 6.73013 12.4019 6.47227 12.6598C6.21441 12.9176 5.86467 13.0625 5.5 13.0625ZM12.4609 11H8.16406C8.01261 10.4085 7.66858 9.88416 7.18622 9.50975C6.70387 9.13533 6.11062 8.93211 5.5 8.93211C4.88938 8.93211 4.29613 9.13533 3.81378 9.50975C3.33142 9.88416 2.98739 10.4085 2.83594 11H1.375V8.25H13.75V9.30789C13.4339 9.49062 13.1571 9.73428 12.9359 10.0247C12.7146 10.3152 12.5532 10.6467 12.4609 11ZM15.125 13.0625C14.8531 13.0625 14.5872 12.9819 14.3611 12.8308C14.135 12.6797 13.9587 12.4649 13.8547 12.2137C13.7506 11.9624 13.7234 11.686 13.7764 11.4193C13.8295 11.1525 13.9604 10.9075 14.1527 10.7152C14.345 10.5229 14.59 10.392 14.8568 10.3389C15.1235 10.2859 15.3999 10.3131 15.6512 10.4172C15.9024 10.5212 16.1172 10.6975 16.2683 10.9236C16.4194 11.1497 16.5 11.4156 16.5 11.6875C16.5 12.0522 16.3551 12.4019 16.0973 12.6598C15.8394 12.9176 15.4897 13.0625 15.125 13.0625ZM19.25 11H17.7891C17.6358 10.4099 17.2911 9.88731 16.809 9.51409C16.3269 9.14086 15.7347 8.93808 15.125 8.9375V6.1875H19.25V11Z" fill="black"/>
</svg>
