<svg width="16" height="16" viewBox="0 0 16 16" fill="none" xmlns="http://www.w3.org/2000/svg">
<path d="M8.00065 8.57148L8.04485 8.61568L11.9145 12.4859C11.952 12.5234 11.9966 12.5532 12.0457 12.5735C12.0947 12.5939 12.1473 12.6043 12.2004 12.6043C12.2535 12.6043 12.3061 12.5939 12.3552 12.5735C12.4042 12.5532 12.4488 12.5234 12.4864 12.4859C12.5239 12.4483 12.5537 12.4038 12.574 12.3547C12.5944 12.3056 12.6048 12.253 12.6048 12.1999C12.6048 12.1468 12.5944 12.0942 12.574 12.0452C12.5537 11.9961 12.5239 11.9515 12.4864 11.914M8.00065 8.57148L12.4864 11.914M8.00065 8.57148L7.95645 8.61568L4.08684 12.4859C4.011 12.5617 3.90814 12.6043 3.80088 12.6043C3.69363 12.6043 3.59077 12.5617 3.51493 12.4859C3.43909 12.41 3.39648 12.3072 3.39648 12.1999C3.39648 12.0927 3.43909 11.9898 3.51493 11.914L7.38513 8.04436L7.42933 8.00016L7.38513 7.95597L3.51493 4.08635C3.51493 4.08635 3.51493 4.08635 3.51493 4.08635C3.43909 4.01051 3.39648 3.90765 3.39648 3.8004C3.39648 3.69314 3.43909 3.59028 3.51493 3.51444C3.59077 3.4386 3.69363 3.396 3.80088 3.396C3.90814 3.396 4.011 3.4386 4.08684 3.51444C4.08684 3.51444 4.08684 3.51444 4.08684 3.51444L7.95645 7.38464L8.00065 7.42884L8.04485 7.38464L11.9145 3.51444C11.9903 3.4386 12.0932 3.396 12.2004 3.396C12.3077 3.396 12.4105 3.4386 12.4864 3.51444C12.5622 3.59028 12.6048 3.69314 12.6048 3.8004C12.6048 3.90765 12.5622 4.01051 12.4864 4.08635L8.61617 7.95597L8.57197 8.00016L8.61617 8.04436L12.4864 11.914M8.00065 8.57148L12.5306 11.8698L12.4864 11.914" fill="#fff" stroke="white" stroke-width="0.125"/>
</svg>
