<svg width="16" height="16" viewBox="0 0 16 16" fill="none" xmlns="http://www.w3.org/2000/svg">
<g clip-path="url(#clip0_1880_53021)">
<circle cx="8" cy="8" r="8" fill="url(#paint0_linear_1880_53021)"/>
<path d="M11.53 4.98437L4.98464 11.5295C4.91641 11.5977 4.82386 11.6361 4.72737 11.6361C4.63087 11.6361 4.53833 11.5977 4.4701 11.5295C4.40187 11.4613 4.36354 11.3687 4.36354 11.2722C4.36354 11.1757 4.40187 11.0832 4.4701 11.015L11.0155 4.46985C11.0836 4.40163 11.1761 4.36327 11.2726 4.36323C11.369 4.36319 11.4615 4.40146 11.5298 4.46963C11.598 4.5378 11.6364 4.63028 11.6364 4.72673C11.6364 4.82317 11.5982 4.91569 11.53 4.98392V4.98437ZM4.47919 6.79337C4.17233 6.48646 3.99996 6.07022 4 5.63622C4.00004 5.20223 4.17249 4.78602 4.47942 4.47917C4.78634 4.17232 5.20259 3.99996 5.63661 4C6.07062 4.00004 6.48684 4.17249 6.7937 4.4794C7.10057 4.78631 7.27294 5.20255 7.27289 5.63655C7.27285 6.07054 7.1004 6.48675 6.79348 6.7936C6.48655 7.10045 6.0703 7.27281 5.63629 7.27277C5.20227 7.27273 4.78605 7.10028 4.47919 6.79337ZM4.72737 5.63707C4.72749 5.78654 4.76446 5.93367 4.83501 6.06544C4.90557 6.19721 5.00753 6.30955 5.13186 6.39251C5.2562 6.47547 5.39907 6.5265 5.54784 6.54107C5.6966 6.55564 5.84666 6.5333 5.98473 6.47604C6.1228 6.41877 6.24462 6.32835 6.3394 6.21277C6.43418 6.09719 6.499 5.96003 6.52811 5.81342C6.55723 5.66682 6.54974 5.51529 6.50632 5.37227C6.4629 5.22925 6.38488 5.09914 6.27917 4.99346C6.15197 4.86632 5.98993 4.77975 5.81352 4.74472C5.63712 4.70969 5.45429 4.72777 5.28816 4.79667C5.12204 4.86557 4.98008 4.98219 4.88026 5.13179C4.78043 5.28138 4.72723 5.45723 4.72737 5.63707ZM12 10.3641C11.9999 10.7427 11.8686 11.1095 11.6283 11.402C11.3881 11.6946 11.0539 11.8949 10.6825 11.9686C10.3112 12.0424 9.92582 11.9851 9.59199 11.8066C9.25816 11.6281 8.99655 11.3394 8.85175 10.9896C8.70694 10.6398 8.6879 10.2507 8.79786 9.88844C8.90782 9.5262 9.13999 9.2133 9.4548 9.00304C9.7696 8.79278 10.1476 8.69818 10.5243 8.73535C10.9011 8.77252 11.2533 8.93916 11.5209 9.20688C11.6733 9.3585 11.7942 9.53885 11.8764 9.73749C11.9586 9.93613 12.0006 10.1491 12 10.3641ZM11.2727 10.3641C11.2728 10.1538 11.1999 9.94996 11.0665 9.78735C10.9331 9.62475 10.7475 9.51343 10.5412 9.47236C10.3349 9.43129 10.1208 9.46301 9.93527 9.56212C9.74976 9.66122 9.60436 9.82158 9.52384 10.0159C9.44331 10.2102 9.43265 10.4264 9.49367 10.6276C9.55469 10.8289 9.68361 11.0028 9.85847 11.1197C10.0333 11.2365 10.2433 11.2892 10.4526 11.2686C10.6619 11.248 10.8576 11.1555 11.0064 11.0068C11.0911 10.9226 11.1582 10.8224 11.2039 10.7121C11.2496 10.6018 11.273 10.4835 11.2727 10.3641Z" fill="white"/>
</g>
<defs>
<linearGradient id="paint0_linear_1880_53021" x1="1.5" y1="12.5" x2="15" y2="5" gradientUnits="userSpaceOnUse">
<stop stop-color="#084D4D"/>
<stop offset="1" stop-color="#107F8C"/>
</linearGradient>
<clipPath id="clip0_1880_53021">
<rect width="16" height="16" fill="white"/>
</clipPath>
</defs>
</svg>
