<svg width="8" height="12" viewBox="0 0 8 12" fill="none" xmlns="http://www.w3.org/2000/svg">
<path d="M7.11882 7.39641C7.38119 7.13405 7.41867 6.75925 7.19378 6.38444C7.00638 6.0846 6.66906 5.93468 6.29425 6.00964C6.14433 6.04712 5.9944 6.12208 5.84448 6.23452C4.68259 7.02161 3.10841 6.98413 1.94651 6.19704C1.87155 6.15956 1.79659 6.12208 1.72163 6.0846C1.30934 5.89719 0.897061 5.97216 0.672178 6.34697C0.409814 6.72177 0.44729 7.13406 0.784615 7.47138C0.859576 7.54634 0.934537 7.58382 0.972017 7.65878L1.0095 7.69626C1.53423 8.10855 2.1714 8.37091 2.99597 8.48335L2.50872 8.9706C2.09643 9.38289 1.64667 9.83265 1.23439 10.2449C1.12194 10.3574 0.972017 10.5448 0.972017 10.8071C0.972017 11.1445 1.15942 11.4818 1.49675 11.6317C1.60919 11.7067 1.72163 11.7067 1.83407 11.7067C2.02147 11.7067 2.24636 11.6317 2.39628 11.4443C2.95849 10.8821 3.40825 10.4323 3.85802 9.98257C3.8955 9.94509 3.8955 9.94509 3.8955 9.94509C3.8955 9.94509 3.93298 9.94509 3.93298 9.98257C4.23282 10.3199 4.57015 10.6197 4.86999 10.9571C5.01992 11.107 5.16984 11.2569 5.31976 11.4068C5.50716 11.5942 5.65708 11.6692 5.88197 11.6692C6.21929 11.7067 6.5941 11.4818 6.74402 11.1445C6.89394 10.8446 6.81898 10.4698 6.55662 10.2449C6.18181 9.87013 5.807 9.45784 5.39472 9.08304L4.75755 8.44587C5.09488 8.40839 5.46968 8.33343 5.80701 8.18351C6.36921 7.9961 6.7815 7.73374 7.11882 7.39641Z" fill="white"/>
<path d="M3.8955 6.34696C5.50716 6.34696 6.81898 5.07262 6.81898 3.46096C6.81898 2.67387 6.51913 1.92426 5.95692 1.36205C5.39472 0.799845 4.68259 0.5 3.93298 0.5C2.32132 0.5 1.04698 1.81182 1.0095 3.386C1.0095 4.17309 1.30934 4.88522 1.87155 5.44742C2.39628 6.04711 3.10841 6.34696 3.8955 6.34696ZM3.07093 2.59891C3.29581 2.37403 3.59565 2.26158 3.8955 2.26158C4.57015 2.26158 5.0574 2.78631 5.0574 3.42348C5.0574 4.09813 4.53267 4.58537 3.8955 4.58537C3.22085 4.58537 2.73361 4.06065 2.73361 3.42348C2.73361 3.12364 2.84604 2.82379 3.07093 2.59891Z" fill="white"/>
<path d="M7.11882 7.39641C7.38119 7.13405 7.41867 6.75925 7.19378 6.38444C7.00638 6.0846 6.66906 5.93468 6.29425 6.00964C6.14433 6.04712 5.9944 6.12208 5.84448 6.23452C4.68259 7.02161 3.10841 6.98413 1.94651 6.19704C1.87155 6.15956 1.79659 6.12208 1.72163 6.0846C1.30934 5.89719 0.897061 5.97216 0.672178 6.34697C0.409814 6.72177 0.44729 7.13406 0.784615 7.47138C0.859576 7.54634 0.934537 7.58382 0.972017 7.65878L1.0095 7.69626C1.53423 8.10855 2.1714 8.37091 2.99597 8.48335L2.50872 8.9706C2.09643 9.38289 1.64667 9.83265 1.23439 10.2449C1.12194 10.3574 0.972017 10.5448 0.972017 10.8071C0.972017 11.1445 1.15942 11.4818 1.49675 11.6317C1.60919 11.7067 1.72163 11.7067 1.83407 11.7067C2.02147 11.7067 2.24636 11.6317 2.39628 11.4443C2.95849 10.8821 3.40825 10.4323 3.85802 9.98257C3.8955 9.94509 3.8955 9.94509 3.8955 9.94509C3.8955 9.94509 3.93298 9.94509 3.93298 9.98257C4.23282 10.3199 4.57015 10.6197 4.86999 10.9571C5.01992 11.107 5.16984 11.2569 5.31976 11.4068C5.50716 11.5942 5.65708 11.6692 5.88197 11.6692C6.21929 11.7067 6.5941 11.4818 6.74402 11.1445C6.89394 10.8446 6.81898 10.4698 6.55662 10.2449C6.18181 9.87013 5.807 9.45784 5.39472 9.08304L4.75755 8.44587C5.09488 8.40839 5.46968 8.33343 5.80701 8.18351C6.36921 7.9961 6.7815 7.73374 7.11882 7.39641Z" fill="white"/>
</svg>
