<svg width="14" height="14" viewBox="0 0 14 14" fill="none" xmlns="http://www.w3.org/2000/svg">
<path fill-rule="evenodd" clip-rule="evenodd" d="M9.41291 5.44664C9.11373 5.95966 8.61465 6.32514 8.03525 6.4555L5.35387 7.05881L8.05323 7.57643C8.63649 7.68827 9.14696 8.03767 9.46232 8.5409L11.7307 12.1605C12.2437 11.6899 12.6946 11.1343 13.0612 10.4994C14.7661 7.5463 14.0744 3.86713 11.5895 1.71431L9.41291 5.44664ZM9.2161 0.359834L5.34899 7.05787L5.34772 7.05763L5.34845 7.0588L5.34764 7.06021L5.34912 7.05988L9.39381 13.5769C7.51774 14.2586 5.36453 14.1373 3.50058 13.0612C0.153095 11.1285 -0.99384 6.84807 0.938834 3.50058C2.63162 0.568585 6.12552 -0.675223 9.2161 0.359834Z" fill="black" fill-opacity="0.4"/>
</svg>
