<svg width="18" height="15" viewBox="0 0 18 15" fill="none" xmlns="http://www.w3.org/2000/svg">
<path d="M17.3171 6.4333L11.0671 0.183305C10.9798 0.0958446 10.8684 0.0362559 10.7472 0.0120745C10.626 -0.0121068 10.5003 0.000205338 10.3861 0.0474538C10.2718 0.0947022 10.1742 0.174765 10.1055 0.277516C10.0367 0.380268 10 0.501092 9.99995 0.624711V3.77705C7.97339 3.95049 5.73511 4.94268 3.8937 6.5044C1.67651 8.38565 0.296046 10.8099 0.00620251 13.3302C-0.0164477 13.5261 0.0232818 13.7242 0.119737 13.8963C0.216192 14.0683 0.364458 14.2056 0.543434 14.2885C0.722411 14.3714 0.922979 14.3957 1.11659 14.3581C1.31021 14.3204 1.48701 14.2226 1.62183 14.0786C2.4812 13.1638 5.53901 10.2708 9.99995 10.0161V13.1247C10 13.2483 10.0367 13.3692 10.1055 13.4719C10.1742 13.5747 10.2718 13.6547 10.3861 13.702C10.5003 13.7492 10.626 13.7615 10.7472 13.7373C10.8684 13.7132 10.9798 13.6536 11.0671 13.5661L17.3171 7.31612C17.434 7.19895 17.4997 7.04021 17.4997 6.87471C17.4997 6.70921 17.434 6.55047 17.3171 6.4333ZM11.25 11.6161V9.37471C11.25 9.20895 11.1841 9.04998 11.0669 8.93277C10.9497 8.81556 10.7907 8.74971 10.625 8.74971C8.4312 8.74971 6.29448 9.32237 4.27417 10.4528C3.24522 11.0311 2.28652 11.7264 1.41714 12.5247C1.87026 10.6622 3.01245 8.89112 4.7023 7.45752C6.51636 5.91924 8.73042 4.99971 10.625 4.99971C10.7907 4.99971 10.9497 4.93386 11.0669 4.81665C11.1841 4.69944 11.25 4.54047 11.25 4.37471V2.13409L15.9914 6.87471L11.25 11.6161Z" fill="black"/>
</svg>
