<svg width="17" height="18" viewBox="0 0 17 18" fill="none" xmlns="http://www.w3.org/2000/svg">
<path d="M16.2917 2.76923H0.708333C0.520472 2.76923 0.340304 2.84217 0.207466 2.972C0.0746279 3.10184 0 3.27793 0 3.46154C0 3.64515 0.0746279 3.82124 0.207466 3.95107C0.340304 4.08091 0.520472 4.15385 0.708333 4.15385H1.41667V16.6154C1.41667 16.9826 1.56592 17.3348 1.8316 17.5945C2.09728 17.8541 2.45761 18 2.83333 18H14.1667C14.5424 18 14.9027 17.8541 15.1684 17.5945C15.4341 17.3348 15.5833 16.9826 15.5833 16.6154V4.15385H16.2917C16.4795 4.15385 16.6597 4.08091 16.7925 3.95107C16.9254 3.82124 17 3.64515 17 3.46154C17 3.27793 16.9254 3.10184 16.7925 2.972C16.6597 2.84217 16.4795 2.76923 16.2917 2.76923ZM14.1667 16.6154H2.83333V4.15385H14.1667V16.6154ZM4.25 0.692308C4.25 0.508696 4.32463 0.332605 4.45747 0.202772C4.5903 0.0729393 4.77047 0 4.95833 0H12.0417C12.2295 0 12.4097 0.0729393 12.5425 0.202772C12.6754 0.332605 12.75 0.508696 12.75 0.692308C12.75 0.875919 12.6754 1.05201 12.5425 1.18184C12.4097 1.31168 12.2295 1.38462 12.0417 1.38462H4.95833C4.77047 1.38462 4.5903 1.31168 4.45747 1.18184C4.32463 1.05201 4.25 0.875919 4.25 0.692308Z" fill="black" fill-opacity="0.4"/>
</svg>
