<svg width="20" height="22" viewBox="0 0 20 22" fill="none" xmlns="http://www.w3.org/2000/svg">
<path d="M18.97 5.19975L10.72 0.685686C10.4996 0.563888 10.2518 0.5 10 0.5C9.74816 0.5 9.50043 0.563888 9.28 0.685686L1.03 5.20162C0.794395 5.33053 0.597722 5.52034 0.460517 5.75121C0.323313 5.98208 0.25061 6.24556 0.25 6.51412V15.4804C0.25061 15.7489 0.323313 16.0124 0.460517 16.2433C0.597722 16.4742 0.794395 16.664 1.03 16.7929L9.28 21.3088C9.50043 21.4306 9.74816 21.4945 10 21.4945C10.2518 21.4945 10.4996 21.4306 10.72 21.3088L18.97 16.7929C19.2056 16.664 19.4023 16.4742 19.5395 16.2433C19.6767 16.0124 19.7494 15.7489 19.75 15.4804V6.51506C19.7499 6.24602 19.6774 5.98196 19.5402 5.75054C19.403 5.51913 19.206 5.32889 18.97 5.19975ZM10 1.99819L17.5319 6.12319L10 10.2482L2.46812 6.12319L10 1.99819ZM1.75 7.43569L9.25 11.5401V19.5829L1.75 15.4813V7.43569ZM10.75 19.5829V11.5438L18.25 7.43569V15.4776L10.75 19.5829Z" fill="black"/>
</svg>
