<svg width="17" height="17" viewBox="0 0 17 17" fill="none" xmlns="http://www.w3.org/2000/svg">
<path d="M16.5086 8.12504L8.75001 0.366443C8.63435 0.249865 8.49668 0.157438 8.34499 0.0945361C8.1933 0.0316343 8.03063 -0.000487794 7.86641 3.68418e-05H0.625006C0.459246 3.68418e-05 0.300275 0.065885 0.183065 0.183095C0.0658545 0.300305 6.32418e-06 0.459277 6.32418e-06 0.625037V7.86644C-0.000518312 8.03066 0.0316038 8.19333 0.0945056 8.34502C0.157407 8.49671 0.249834 8.63438 0.366412 8.75004L8.12501 16.5086C8.24108 16.6247 8.37889 16.7168 8.53057 16.7797C8.68225 16.8425 8.84481 16.8748 9.00899 16.8748C9.17317 16.8748 9.33574 16.8425 9.48741 16.7797C9.63909 16.7168 9.7769 16.6247 9.89298 16.5086L16.5086 9.89301C16.6247 9.77693 16.7168 9.63912 16.7796 9.48744C16.8425 9.33577 16.8748 9.1732 16.8748 9.00902C16.8748 8.84484 16.8425 8.68228 16.7796 8.5306C16.7168 8.37893 16.6247 8.24111 16.5086 8.12504ZM9.0086 15.625L1.25001 7.86644V1.25004H7.86641L15.625 9.00863L9.0086 15.625ZM5.00001 4.06254C5.00001 4.24796 4.94502 4.42921 4.84201 4.58338C4.739 4.73755 4.59258 4.85772 4.42127 4.92867C4.24997 4.99963 4.06147 5.0182 3.87961 4.98202C3.69775 4.94585 3.53071 4.85656 3.39959 4.72545C3.26848 4.59434 3.17919 4.42729 3.14302 4.24543C3.10685 4.06358 3.12541 3.87508 3.19637 3.70377C3.26733 3.53247 3.38749 3.38605 3.54166 3.28303C3.69583 3.18002 3.87709 3.12504 4.06251 3.12504C4.31115 3.12504 4.5496 3.22381 4.72542 3.39962C4.90123 3.57544 5.00001 3.8139 5.00001 4.06254Z" fill="black" fill-opacity="0.4"/>
</svg>
