<svg width="20" height="18" viewBox="0 0 20 18" fill="none" xmlns="http://www.w3.org/2000/svg">
<path d="M8.27576 16.6154C8.27576 16.8892 8.19486 17.1569 8.0433 17.3846C7.89175 17.6123 7.67633 17.7898 7.4243 17.8946C7.17226 17.9994 6.89493 18.0268 6.62738 17.9734C6.35982 17.92 6.11405 17.7881 5.92116 17.5945C5.72826 17.4008 5.59689 17.1541 5.54367 16.8855C5.49045 16.6169 5.51777 16.3385 5.62216 16.0855C5.72656 15.8325 5.90335 15.6163 6.13017 15.4641C6.35699 15.312 6.62367 15.2308 6.89646 15.2308C7.26228 15.2308 7.6131 15.3766 7.87177 15.6363C8.13044 15.896 8.27576 16.2482 8.27576 16.6154ZM15.8619 15.2308C15.5891 15.2308 15.3224 15.312 15.0956 15.4641C14.8687 15.6163 14.692 15.8325 14.5876 16.0855C14.4832 16.3385 14.4559 16.6169 14.5091 16.8855C14.5623 17.1541 14.6937 17.4008 14.8866 17.5945C15.0795 17.7881 15.3252 17.92 15.5928 17.9734C15.8603 18.0268 16.1377 17.9994 16.3897 17.8946C16.6417 17.7898 16.8571 17.6123 17.0087 17.3846C17.1603 17.1569 17.2412 16.8892 17.2412 16.6154C17.2412 16.2482 17.0958 15.896 16.8372 15.6363C16.5785 15.3766 16.2277 15.2308 15.8619 15.2308ZM19.9696 4.35721L17.5101 12.3802C17.3813 12.8055 17.1194 13.1778 16.7631 13.4419C16.4069 13.7059 15.9754 13.8477 15.5326 13.8462H7.24732C6.79817 13.8445 6.36164 13.6968 6.00312 13.4251C5.6446 13.1535 5.38337 12.7727 5.25855 12.3395L2.13963 1.38462H0.689646C0.506741 1.38462 0.331327 1.31168 0.201993 1.18184C0.072659 1.05201 0 0.875919 0 0.692308C0 0.508696 0.072659 0.332605 0.201993 0.202772C0.331327 0.0729393 0.506741 0 0.689646 0H2.13963C2.43912 0.000997313 2.73023 0.0993358 2.96939 0.280296C3.20855 0.461256 3.3829 0.715105 3.46634 1.00385L4.16546 3.46154H19.3101C19.418 3.4615 19.5244 3.48689 19.6208 3.53566C19.7172 3.58443 19.8008 3.65522 19.865 3.74234C19.9291 3.82947 19.972 3.93049 19.9902 4.03728C20.0083 4.14407 20.0013 4.25365 19.9696 4.35721ZM18.3765 4.84615H4.55942L6.5844 11.9596C6.6256 12.1042 6.71257 12.2314 6.83218 12.322C6.95179 12.4125 7.09751 12.4615 7.24732 12.4615H15.5326C15.6801 12.4616 15.8238 12.4141 15.9425 12.3261C16.0612 12.2381 16.1487 12.1142 16.192 11.9726L18.3765 4.84615Z" fill="black"/>
</svg>
