<svg width="18" height="18" viewBox="0 0 18 18" fill="none" xmlns="http://www.w3.org/2000/svg">
<path fill-rule="evenodd" clip-rule="evenodd" d="M17.4558 1.61647C17.7682 1.30405 17.7682 0.797515 17.4558 0.485096C17.1434 0.172676 16.6368 0.172676 16.3244 0.485095L8.97058 7.83894L1.61686 0.485216C1.30444 0.172797 0.797906 0.172797 0.485487 0.485216C0.173067 0.797636 0.173067 1.30417 0.485486 1.61659L7.83921 8.97031L0.485234 16.3243C0.172815 16.6367 0.172816 17.1432 0.485235 17.4557C0.797655 17.7681 1.30419 17.7681 1.61661 17.4557L8.97058 10.1017L16.3247 17.4558C16.6371 17.7682 17.1436 17.7682 17.456 17.4558C17.7685 17.1434 17.7685 16.6368 17.456 16.3244L10.102 8.97031L17.4558 1.61647Z" fill="white"/>
</svg>
