<svg width="26" height="30" viewBox="0 0 26 30" fill="none" xmlns="http://www.w3.org/2000/svg">
<path d="M24.96 6.74919L13.96 0.379216C13.6661 0.207342 13.3358 0.117188 13 0.117188C12.6642 0.117187 12.3339 0.207342 12.04 0.379216L1.04 6.75184C0.725861 6.93375 0.463629 7.20159 0.28069 7.52738C0.0977502 7.85318 0.000812822 8.22498 0 8.60396V21.2566C0.000812822 21.6356 0.0977502 22.0074 0.28069 22.3332C0.463629 22.659 0.725861 22.9268 1.04 23.1087L12.04 29.4813C12.3339 29.6532 12.6642 29.7434 13 29.7434C13.3358 29.7434 13.6661 29.6532 13.96 29.4813L24.96 23.1087C25.2741 22.9268 25.5364 22.659 25.7193 22.3332C25.9023 22.0074 25.9992 21.6356 26 21.2566V8.60528C25.9999 8.22563 25.9032 7.853 25.7203 7.52644C25.5373 7.19989 25.2747 6.93143 24.96 6.74919ZM13 2.23134L23.0425 8.05229L19.3213 10.2087L9.2775 4.38774L13 2.23134ZM13 13.8732L2.9575 8.05229L7.195 5.59691L17.2375 11.4179L13 13.8732ZM2 9.90442L12 15.6963V27.0458L2 21.2579V9.90442ZM24 21.2526L14 27.0458V15.7016L18 13.3851V18.1067C18 18.3874 18.1054 18.6566 18.2929 18.855C18.4804 19.0535 18.7348 19.165 19 19.165C19.2652 19.165 19.5196 19.0535 19.7071 18.855C19.8946 18.6566 20 18.3874 20 18.1067V12.2262L24 9.90442V21.2513V21.2526Z" fill="#333333"/>
</svg>
