<svg width="17" height="20" viewBox="0 0 17 20" fill="none" xmlns="http://www.w3.org/2000/svg">
<path d="M16.774 5.60962L11.3649 0.225C11.2931 0.153589 11.2078 0.0969631 11.114 0.0583569C11.0202 0.0197506 10.9197 -7.92199e-05 10.8182 2.37845e-07H1.54545C1.13557 2.37845e-07 0.742482 0.162088 0.452653 0.450605C0.162824 0.739123 0 1.13044 0 1.53846V18.4615C0 18.8696 0.162824 19.2609 0.452653 19.5494C0.742482 19.8379 1.13557 20 1.54545 20H15.4545C15.8644 20 16.2575 19.8379 16.5473 19.5494C16.8372 19.2609 17 18.8696 17 18.4615V6.15385C17.0001 6.0528 16.9802 5.95273 16.9414 5.85935C16.9026 5.76597 16.8457 5.68111 16.774 5.60962ZM11.5909 2.62596L14.3621 5.38462H11.5909V2.62596ZM15.4545 18.4615H1.54545V1.53846H10.0455V6.15385C10.0455 6.35786 10.1269 6.55352 10.2718 6.69777C10.4167 6.84203 10.6132 6.92308 10.8182 6.92308H15.4545V18.4615ZM12.3636 10.7692C12.3636 10.9732 12.2822 11.1689 12.1373 11.3132C11.9924 11.4574 11.7958 11.5385 11.5909 11.5385H5.40909C5.20415 11.5385 5.0076 11.4574 4.86269 11.3132C4.71778 11.1689 4.63636 10.9732 4.63636 10.7692C4.63636 10.5652 4.71778 10.3696 4.86269 10.2253C5.0076 10.081 5.20415 10 5.40909 10H11.5909C11.7958 10 11.9924 10.081 12.1373 10.2253C12.2822 10.3696 12.3636 10.5652 12.3636 10.7692ZM12.3636 13.8462C12.3636 14.0502 12.2822 14.2458 12.1373 14.3901C11.9924 14.5343 11.7958 14.6154 11.5909 14.6154H5.40909C5.20415 14.6154 5.0076 14.5343 4.86269 14.3901C4.71778 14.2458 4.63636 14.0502 4.63636 13.8462C4.63636 13.6421 4.71778 13.4465 4.86269 13.3022C5.0076 13.158 5.20415 13.0769 5.40909 13.0769H11.5909C11.7958 13.0769 11.9924 13.158 12.1373 13.3022C12.2822 13.4465 12.3636 13.6421 12.3636 13.8462Z" fill="black"/>
</svg>
