<svg width="15" height="14" viewBox="0 0 15 14" fill="none" xmlns="http://www.w3.org/2000/svg">
<path d="M14.4547 10.7079C14.8074 9.99109 14.9831 9.20022 14.9672 8.40153C14.9514 7.60283 14.7444 6.81957 14.3636 6.11732C13.9828 5.41508 13.4393 4.8143 12.7785 4.3653C12.1178 3.9163 11.3591 3.63215 10.566 3.53665C10.3029 2.92347 9.91985 2.36915 9.43926 1.90633C8.95867 1.44351 8.39031 1.08155 7.76767 0.841794C7.14503 0.602034 6.48069 0.489316 5.81381 0.510282C5.14693 0.531248 4.49099 0.685473 3.88464 0.963871C3.27829 1.24227 2.73379 1.63921 2.28322 2.1313C1.83265 2.6234 1.48513 3.20069 1.26113 3.82918C1.03713 4.45766 0.941185 5.12462 0.978942 5.79076C1.0167 6.4569 1.1874 7.10875 1.48098 7.7079L1.00223 9.38415C0.95951 9.53411 0.957639 9.69276 0.99681 9.84369C1.03598 9.99462 1.11477 10.1323 1.22503 10.2426C1.33529 10.3529 1.47301 10.4316 1.62394 10.4708C1.77486 10.51 1.93352 10.5081 2.08348 10.4654L3.75973 9.98665C4.26555 10.235 4.80964 10.3962 5.36911 10.4635C5.63579 11.0883 6.027 11.6522 6.51887 12.1208C7.01073 12.5894 7.59292 12.9529 8.22991 13.189C8.8669 13.4251 9.54533 13.5289 10.2238 13.4941C10.9022 13.4594 11.5665 13.2867 12.176 12.9866L13.8522 13.4654C14.0022 13.5081 14.1608 13.51 14.3118 13.4708C14.4627 13.4316 14.6004 13.3529 14.7107 13.2426C14.8209 13.1323 14.8997 12.9946 14.9389 12.8437C14.9781 12.6928 14.9762 12.5341 14.9335 12.3841L14.4547 10.7079ZM3.81348 8.95165C3.76701 8.95165 3.72076 8.95796 3.67598 8.9704L2.02536 9.44227L2.49723 7.79165C2.53259 7.66589 2.51734 7.53129 2.45473 7.41665C1.99499 6.5726 1.85479 5.59116 2.05983 4.65215C2.26487 3.71315 2.8014 2.87947 3.57113 2.30389C4.34085 1.72831 5.29221 1.44937 6.25087 1.51819C7.20953 1.587 8.1113 1.99896 8.79092 2.67859C9.47054 3.35821 9.8825 4.25997 9.95132 5.21863C10.0201 6.17729 9.74119 7.12865 9.16561 7.89837C8.59003 8.6681 7.75635 9.20464 6.81735 9.40967C5.87834 9.61471 4.8969 9.47451 4.05286 9.01477C3.97968 8.97385 3.89732 8.95213 3.81348 8.95165ZM13.4385 10.7916L13.9104 12.4423L12.2597 11.9704C12.134 11.935 11.9994 11.9503 11.8847 12.0129C10.963 12.5143 9.88134 12.6339 8.87238 12.3459C7.86341 12.0579 7.00783 11.3853 6.48973 10.4729C7.17439 10.4016 7.83692 10.1896 8.43577 9.85011C9.03461 9.51066 9.55684 9.05111 9.96968 8.50029C10.3825 7.94948 10.6771 7.31928 10.8349 6.64925C10.9927 5.97922 11.0103 5.28381 10.8866 4.60665C11.4857 4.74784 12.0442 5.02541 12.5185 5.41775C12.9928 5.81008 13.3702 6.30659 13.6213 6.86862C13.8723 7.43065 13.9903 8.04303 13.9659 8.6581C13.9416 9.27317 13.7756 9.87433 13.481 10.4148C13.4179 10.5299 13.4026 10.6653 13.4385 10.7916Z" fill="white"/>
</svg>
