<svg width="24" height="24" viewBox="0 0 24 24" fill="none" xmlns="http://www.w3.org/2000/svg">
<path fill-rule="evenodd" clip-rule="evenodd" d="M9.76623 12.8577L9.76623 13.7742H8.59961V15.2131H9.76623L9.76623 17.0659H11.2884L11.2884 15.2131H15.0105V13.7742H11.2884L11.2884 12.8577H13.0689C13.9924 12.8577 14.7739 12.5702 15.3278 12.0472C15.8831 11.5229 16.1771 10.7921 16.1771 9.97174C16.1771 9.14334 15.8788 8.41502 15.3203 7.89586C14.7642 7.37882 13.9833 7.09961 13.0689 7.09961H9.76623V11.4189H8.59961V12.8577H9.76623ZM13.0413 11.419H11.2886V8.53857H13.0413C13.6102 8.53857 14.0062 8.70258 14.2571 8.94082C14.5063 9.17735 14.6551 9.52712 14.6551 9.98572C14.6551 10.444 14.5066 10.7894 14.2587 11.0222C14.0084 11.2573 13.6122 11.419 13.0413 11.419Z" fill="black"/>
<circle cx="12" cy="12" r="9.25" stroke="black" stroke-width="1.5"/>
</svg>
