<svg width="20" height="17" viewBox="0 0 20 17" fill="none" xmlns="http://www.w3.org/2000/svg">
<path d="M19.9491 8.94271L17.092 1.85938C17.029 1.70335 16.9122 1.57459 16.7624 1.49609C16.6126 1.41759 16.4395 1.39446 16.2741 1.43083L10.7143 2.65625V0.708333C10.7143 0.520472 10.639 0.340304 10.5051 0.207466C10.3711 0.0746279 10.1894 0 10 0C9.81056 0 9.62888 0.0746279 9.49492 0.207466C9.36097 0.340304 9.28572 0.520472 9.28572 0.708333V2.97323L3.41608 4.26682C3.30291 4.29161 3.19752 4.34334 3.10901 4.41754C3.02051 4.49173 2.95153 4.58617 2.90805 4.69271V4.69802L0.0509065 11.776C0.0167272 11.8605 -0.000558252 11.9507 1.37453e-05 12.0417C1.37453e-05 14.1056 2.19108 14.875 3.57144 14.875C4.95179 14.875 7.14286 14.1056 7.14286 12.0417C7.14343 11.9507 7.12615 11.8605 7.09197 11.776L4.54644 5.46922L9.28572 4.42708V15.5833H7.85715C7.66771 15.5833 7.48602 15.658 7.35207 15.7908C7.21812 15.9236 7.14286 16.1038 7.14286 16.2917C7.14286 16.4795 7.21812 16.6597 7.35207 16.7925C7.48602 16.9254 7.66771 17 7.85715 17H12.1429C12.3323 17 12.514 16.9254 12.6479 16.7925C12.7819 16.6597 12.8571 16.4795 12.8571 16.2917C12.8571 16.1038 12.7819 15.9236 12.6479 15.7908C12.514 15.658 12.3323 15.5833 12.1429 15.5833H10.7143V4.1101L15.2678 3.10781L12.908 8.94271C12.8739 9.02714 12.8566 9.11736 12.8571 9.20833C12.8571 11.2722 15.0482 12.0417 16.4286 12.0417C17.8089 12.0417 20 11.2722 20 9.20833C20.0006 9.11736 19.9833 9.02714 19.9491 8.94271ZM3.57144 13.4583C2.89912 13.4583 1.5393 13.1387 1.43483 12.1621L3.57144 6.86552L5.70804 12.1621C5.60358 13.1387 4.24376 13.4583 3.57144 13.4583ZM16.4286 10.625C15.7562 10.625 14.3964 10.3054 14.292 9.32875L16.4286 4.03219L18.5652 9.32875C18.4607 10.3054 17.1009 10.625 16.4286 10.625Z" fill="black"/>
</svg>
