<svg width="14" height="12" viewBox="0 0 14 12" fill="none" xmlns="http://www.w3.org/2000/svg">
<path d="M12.4688 2.5H2.46875C2.33614 2.5 2.20896 2.44732 2.1152 2.35355C2.02143 2.25979 1.96875 2.13261 1.96875 2C1.96875 1.86739 2.02143 1.74021 2.1152 1.64645C2.20896 1.55268 2.33614 1.5 2.46875 1.5H10.9688C11.1014 1.5 11.2285 1.44732 11.3223 1.35355C11.4161 1.25979 11.4688 1.13261 11.4688 1C11.4688 0.867392 11.4161 0.740215 11.3223 0.646447C11.2285 0.552679 11.1014 0.5 10.9688 0.5H2.46875C2.07093 0.5 1.68939 0.658035 1.40809 0.93934C1.12679 1.22064 0.96875 1.60218 0.96875 2V10C0.96875 10.3978 1.12679 10.7794 1.40809 11.0607C1.68939 11.342 2.07093 11.5 2.46875 11.5H12.4688C12.734 11.5 12.9883 11.3946 13.1759 11.2071C13.3634 11.0196 13.4688 10.7652 13.4688 10.5V3.5C13.4688 3.23478 13.3634 2.98043 13.1759 2.79289C12.9883 2.60536 12.734 2.5 12.4688 2.5ZM12.4688 10.5H2.46875C2.33614 10.5 2.20896 10.4473 2.1152 10.3536C2.02143 10.2598 1.96875 10.1326 1.96875 10V3.41437C2.1293 3.47129 2.29841 3.50025 2.46875 3.5H12.4688V10.5ZM9.46875 6.75C9.46875 6.60166 9.51274 6.45666 9.59515 6.33332C9.67756 6.20999 9.79469 6.11386 9.93174 6.05709C10.0688 6.00033 10.2196 5.98547 10.3651 6.01441C10.5106 6.04335 10.6442 6.11478 10.7491 6.21967C10.854 6.32456 10.9254 6.4582 10.9543 6.60368C10.9833 6.74917 10.9684 6.89997 10.9117 7.03701C10.8549 7.17406 10.7588 7.29119 10.6354 7.3736C10.5121 7.45601 10.3671 7.5 10.2188 7.5C10.0198 7.5 9.82907 7.42098 9.68842 7.28033C9.54777 7.13968 9.46875 6.94891 9.46875 6.75Z" fill="white"/>
</svg>
