<svg width="14" height="13" viewBox="0 0 14 13" fill="none" xmlns="http://www.w3.org/2000/svg">
<path d="M12.5849 8.56341L9.69679 7.26924L9.68882 7.26556C9.53888 7.20143 9.37532 7.1757 9.21294 7.19068C9.05056 7.20567 8.89447 7.2609 8.7588 7.35139C8.74283 7.36194 8.72748 7.3734 8.71282 7.38572L7.22063 8.65782C6.27529 8.19864 5.2993 7.23 4.84011 6.29692L6.11406 4.78205C6.12632 4.76672 6.13797 4.7514 6.149 4.73484C6.23754 4.59954 6.29126 4.44445 6.30538 4.28337C6.3195 4.12229 6.29358 3.96021 6.22992 3.81157V3.80422L4.93207 0.91118C4.84792 0.717001 4.70323 0.555245 4.5196 0.450058C4.33596 0.344871 4.12323 0.301895 3.91316 0.327545C3.08245 0.436858 2.31993 0.844827 1.76802 1.47525C1.21612 2.10568 0.912566 2.91546 0.914068 3.75333C0.914068 8.62104 4.87445 12.5814 9.74215 12.5814C10.58 12.5829 11.3898 12.2794 12.0202 11.7275C12.6507 11.1756 13.0586 10.413 13.1679 9.58232C13.1936 9.37232 13.1508 9.15965 13.0457 8.97602C12.9406 8.7924 12.779 8.64766 12.5849 8.56341ZM9.74215 11.6005C7.66165 11.5982 5.667 10.7708 4.19586 9.29962C2.72472 7.82848 1.89724 5.83384 1.89497 3.75333C1.89266 3.15467 2.10834 2.57564 2.50174 2.12437C2.89513 1.6731 3.43933 1.38046 4.03271 1.30109C4.03247 1.30353 4.03247 1.306 4.03271 1.30844L5.32014 4.18983L4.05294 5.70655C4.04008 5.72135 4.0284 5.73713 4.018 5.75375C3.92574 5.89532 3.87162 6.05832 3.86088 6.22695C3.85014 6.39558 3.88314 6.56413 3.95669 6.71626C4.51213 7.85226 5.65671 8.98826 6.80498 9.54309C6.95822 9.61595 7.12774 9.64781 7.29698 9.63556C7.46623 9.62331 7.62939 9.56737 7.77055 9.4732C7.78629 9.46259 7.80143 9.45113 7.81591 9.43886L9.30627 8.16738L12.1877 9.45787C12.1877 9.45787 12.1926 9.45787 12.1944 9.45787C12.116 10.0521 11.8238 10.5974 11.3724 10.9918C10.9211 11.3861 10.3415 11.6025 9.74215 11.6005Z" fill="white"/>
</svg>
