<svg width="18" height="17" viewBox="0 0 18 17" fill="none" xmlns="http://www.w3.org/2000/svg">
<path d="M16.7637 4.73262L13.0753 1.24122C12.9527 1.12511 12.8071 1.03301 12.6468 0.970178C12.4865 0.907342 12.3148 0.875 12.1413 0.875C11.9678 0.875 11.796 0.907342 11.6357 0.970178C11.4755 1.03301 11.3299 1.12511 11.2072 1.24122L1.0278 10.8756C0.904614 10.9912 0.806951 11.1289 0.740485 11.2806C0.674019 11.4323 0.640077 11.595 0.640632 11.7592V15.2506C0.640632 15.5821 0.779789 15.9001 1.02749 16.1345C1.27519 16.3689 1.61115 16.5006 1.96145 16.5006H5.65067C5.82419 16.5011 5.99609 16.469 6.15637 16.4061C6.31665 16.3432 6.46212 16.2508 6.58433 16.1342L16.7637 6.50059C16.8864 6.38452 16.9837 6.2467 17.0501 6.09503C17.1165 5.94335 17.1507 5.78078 17.1507 5.61661C17.1507 5.45243 17.1165 5.28986 17.0501 5.13819C16.9837 4.98651 16.8864 4.8487 16.7637 4.73262ZM5.65067 15.2506H1.96145V11.7592L9.22597 4.88419L12.9152 8.37559L5.65067 15.2506ZM13.8488 7.49122L10.1596 4.00059L12.1409 2.12559L15.8301 5.61622L13.8488 7.49122Z" fill="black" fill-opacity="0.4"/>
</svg>
