<svg width="14" height="14" viewBox="0 0 14 14" fill="none" xmlns="http://www.w3.org/2000/svg">
<path d="M13.7016 12.4933L10.5722 9.36457C11.4792 8.27563 11.9315 6.87894 11.8349 5.46503C11.7384 4.05112 11.1005 2.72885 10.0539 1.7733C9.00729 0.817746 7.63258 0.302475 6.21574 0.334675C4.7989 0.366875 3.44903 0.944067 2.44691 1.94618C1.4448 2.94829 0.867607 4.29817 0.835408 5.71501C0.803208 7.13184 1.31848 8.50655 2.27403 9.55316C3.22958 10.5998 4.55185 11.2377 5.96576 11.3342C7.37967 11.4307 8.77637 10.9785 9.8653 10.0714L12.9941 13.2008C13.0405 13.2473 13.0957 13.2841 13.1564 13.3093C13.217 13.3344 13.2821 13.3473 13.3478 13.3473C13.4135 13.3473 13.4786 13.3344 13.5392 13.3093C13.5999 13.2841 13.6551 13.2473 13.7016 13.2008C13.748 13.1544 13.7849 13.0992 13.81 13.0385C13.8351 12.9778 13.8481 12.9128 13.8481 12.8471C13.8481 12.7814 13.8351 12.7163 13.81 12.6556C13.7849 12.5949 13.748 12.5398 13.7016 12.4933ZM1.8478 5.84707C1.8478 4.95705 2.11172 4.08702 2.60619 3.347C3.10065 2.60698 3.80346 2.0302 4.62572 1.68961C5.44799 1.34901 6.35279 1.2599 7.22571 1.43353C8.09862 1.60717 8.90044 2.03575 9.52978 2.66509C10.1591 3.29442 10.5877 4.09625 10.7613 4.96916C10.935 5.84208 10.8459 6.74688 10.5053 7.56914C10.1647 8.39141 9.58789 9.09422 8.84787 9.58868C8.10784 10.0831 7.23782 10.3471 6.3478 10.3471C5.15473 10.3457 4.01091 9.87121 3.16728 9.02759C2.32365 8.18396 1.84912 7.04014 1.8478 5.84707Z" fill="black"/>
</svg>
