<svg width="10" height="10" viewBox="0 0 10 10" fill="none" xmlns="http://www.w3.org/2000/svg">
<path d="M9.74809 2.16375C9.72476 2.1061 9.68779 2.05496 9.64036 2.01473C9.59293 1.9745 9.53644 1.94637 9.47575 1.93276C9.41505 1.91915 9.35196 1.92046 9.29189 1.93658C9.23181 1.9527 9.17654 1.98315 9.13082 2.02532L7.19345 3.81297L6.36514 3.63512L6.18727 2.8069L7.97513 0.869757C8.0173 0.82404 8.04776 0.768778 8.06388 0.70871C8.08 0.648641 8.08131 0.585559 8.0677 0.524873C8.05408 0.464187 8.02595 0.407707 7.98572 0.360279C7.94548 0.31285 7.89434 0.275888 7.83668 0.252561C7.3112 0.04002 6.74156 -0.0402298 6.17781 0.0188629C5.61405 0.0779556 5.07344 0.274582 4.60347 0.591466C4.1335 0.908351 3.74856 1.33579 3.48246 1.83624C3.21637 2.33668 3.07726 2.89482 3.07738 3.46159C3.07675 3.9402 3.17495 4.41378 3.36582 4.85268L0.471298 7.35511C0.464087 7.36088 0.457357 7.36761 0.450627 7.37386C0.162095 7.66236 0 8.05365 0 8.46164C0 8.66366 0.0397954 8.8637 0.117114 9.05035C0.194433 9.23699 0.30776 9.40658 0.450627 9.54943C0.593493 9.69228 0.7631 9.80559 0.949763 9.8829C1.13643 9.96021 1.33649 10 1.53854 10C1.94658 10 2.33791 9.83792 2.62644 9.54943C2.63269 9.54318 2.63942 9.53597 2.64519 9.52924L5.14743 6.63409C5.67453 6.86544 6.25101 6.96169 6.82468 6.91414C7.39836 6.86658 7.95111 6.67671 8.4329 6.36173C8.9147 6.04674 9.31032 5.61658 9.58394 5.11019C9.85757 4.6038 10.0006 4.03717 10 3.46159C10.0007 3.01676 9.9152 2.57601 9.74809 2.16375ZM6.53869 6.15341C6.08346 6.15278 5.63579 6.03704 5.23733 5.81693C5.16013 5.77429 5.07062 5.75947 4.9838 5.77496C4.89698 5.79045 4.81812 5.83531 4.76044 5.90201L2.07312 9.01395C1.92769 9.15209 1.73405 9.22797 1.53348 9.2254C1.33291 9.22283 1.14127 9.14202 0.999434 9.0002C0.857596 8.85838 0.776777 8.66677 0.774209 8.46622C0.771641 8.26567 0.847527 8.07205 0.985687 7.92664L4.09558 5.24011C4.16241 5.18241 4.20734 5.10347 4.22283 5.01655C4.23833 4.92964 4.22344 4.84003 4.18067 4.7628C3.93551 4.31944 3.82045 3.8159 3.84873 3.31007C3.87702 2.80425 4.04748 2.31667 4.34054 1.90339C4.6336 1.49012 5.03735 1.16792 5.50537 0.973847C5.9734 0.779774 6.48669 0.721702 6.98625 0.806307L5.48635 2.43149C5.44462 2.47676 5.41437 2.53138 5.39814 2.59077C5.38191 2.65016 5.38018 2.71258 5.39309 2.77278L5.66519 4.03841C5.68075 4.1108 5.71688 4.17715 5.76924 4.22951C5.8216 4.28186 5.88796 4.31799 5.96036 4.33355L7.2271 4.60561C7.28731 4.61853 7.34973 4.6168 7.40913 4.60057C7.46852 4.58434 7.52315 4.55409 7.56843 4.51236L9.1938 3.01264C9.2586 3.39863 9.23852 3.7941 9.13498 4.17155C9.03143 4.549 8.84689 4.89936 8.5942 5.19827C8.34151 5.49718 8.02673 5.73747 7.67175 5.90242C7.31677 6.06736 6.93012 6.15301 6.53869 6.15341Z" fill="black"/>
</svg>
