<svg width="22" height="15" viewBox="0 0 22 15" fill="none" xmlns="http://www.w3.org/2000/svg">
<path d="M10.2763 14.4836C10.2383 14.6311 10.1506 14.762 10.0271 14.8556C9.90366 14.9491 9.7515 15 9.59485 15C9.53566 15.0003 9.47667 14.9934 9.41923 14.9795L6.60924 14.2978C6.53101 14.2788 6.45675 14.2468 6.38971 14.2032L4.28222 12.8398C4.12723 12.7395 4.01967 12.5835 3.98319 12.4062C3.94671 12.2289 3.98431 12.0448 4.08772 11.8944C4.19112 11.744 4.35186 11.6396 4.53457 11.6042C4.71728 11.5688 4.907 11.6053 5.06199 11.7056L7.06762 13.0034L9.75994 13.657C9.84989 13.6782 9.93465 13.7164 10.0093 13.7694C10.084 13.8225 10.1472 13.8893 10.1952 13.9662C10.2431 14.043 10.275 14.1282 10.2889 14.217C10.3028 14.3058 10.2985 14.3964 10.2763 14.4836ZM21.9281 6.26391C21.8704 6.43381 21.7787 6.59094 21.6581 6.72623C21.5375 6.86152 21.3905 6.97229 21.2256 7.05213L19.1462 8.06106L14.3095 12.7555C14.2236 12.8387 14.117 12.8989 14.0001 12.9303C13.8831 12.9616 13.7598 12.9631 13.6421 12.9344L8.02214 11.571C7.93667 11.5502 7.85597 11.5141 7.78417 11.4645L2.90884 8.08663L0.776765 7.05213C0.443549 6.89049 0.190128 6.60704 0.0722251 6.26412C-0.0456783 5.9212 -0.0184114 5.54687 0.14803 5.22345L2.33016 0.989196C2.49673 0.665842 2.78882 0.41992 3.1422 0.305506C3.49559 0.191091 3.88133 0.217551 4.21461 0.379067L6.15174 1.31642L10.8058 0.0262838C10.932 -0.00876126 11.0659 -0.00876126 11.1922 0.0262838L15.8462 1.31642L17.7833 0.379067C18.1166 0.217551 18.5023 0.191091 18.8557 0.305506C19.2091 0.41992 19.5012 0.665842 19.6678 0.989196L21.8499 5.22345C21.9331 5.38326 21.9829 5.5575 21.9963 5.73609C22.0097 5.91468 21.9865 6.09407 21.9281 6.26391ZM17.8729 7.36657L15.4835 2.72925H12.6893L8.89235 6.30822C10.0041 6.9976 11.7471 7.18762 13.3111 5.65804C13.4332 5.53857 13.5966 5.46716 13.7697 5.45757C13.9428 5.44797 14.1135 5.50086 14.2489 5.60606L17.2705 7.9554L17.8729 7.36657ZM1.40462 5.83273L2.95802 6.58687L5.14015 2.35261L3.58675 1.59847L1.40462 5.83273ZM16.2686 8.92087L13.8353 7.02998C12.1194 8.39339 9.94083 8.57319 8.13541 7.45605C7.95782 7.34642 7.80788 7.19947 7.69666 7.02606C7.58545 6.85266 7.5158 6.65721 7.49287 6.45418C7.46994 6.25114 7.49432 6.0457 7.56419 5.85303C7.63406 5.66037 7.74765 5.4854 7.89657 5.34105C7.89868 5.33857 7.90103 5.33628 7.90359 5.33423L11.8428 1.62659L10.9998 1.39311L6.57236 2.62103L4.16894 7.28477L8.4893 10.28L13.5947 11.5182L16.2686 8.92087ZM20.5924 5.83273L18.4129 1.59847L16.8595 2.35261L19.0417 6.58687L20.5924 5.83273Z" fill="black"/>
</svg>
