<svg width="16" height="14" viewBox="0 0 16 14" fill="none" xmlns="http://www.w3.org/2000/svg">
<path fill-rule="evenodd" clip-rule="evenodd" d="M8.52184 10.5795C7.90843 11.1805 7.30033 11.7716 6.69789 12.3673C6.48728 12.5759 6.25048 12.6913 5.9482 12.6753C5.74184 12.6642 5.62645 12.5731 5.56309 12.3762C5.10153 10.9352 4.63324 9.49779 4.17415 8.0554C4.12955 7.91546 4.06372 7.84746 3.92284 7.80366C2.83548 7.46968 1.75024 7.12786 0.666765 6.78142C0.50005 6.72801 0.331919 6.65822 0.187858 6.55959C-0.0347832 6.40791 -0.067348 6.16045 0.132285 5.98242C0.316698 5.81828 0.536862 5.67515 0.76552 5.58399C2.09464 5.05418 3.43084 4.54146 4.76491 4.0241C8.15054 2.70918 11.5362 1.39532 14.9221 0.0804002C15.566 -0.169909 16.0608 0.182589 15.9939 0.882956C15.9511 1.33088 15.8357 1.77168 15.7426 2.2139C15.0074 5.70577 14.2716 9.19799 13.5325 12.6891C13.3569 13.518 12.7782 13.7345 12.1 13.2314C10.9642 12.3893 9.82937 11.5444 8.69422 10.7009C8.64006 10.6614 8.58379 10.6233 8.52184 10.5795ZM5.97227 11.6398C5.98501 11.6363 5.99776 11.6327 6.0105 11.6295C6.01758 11.5968 6.02784 11.5647 6.03067 11.5323C6.10359 10.7408 6.18075 9.94963 6.24411 9.15668C6.25827 8.98008 6.31844 8.85475 6.45047 8.73582C7.49748 7.79405 8.53812 6.84622 9.58089 5.90053C10.7352 4.85336 11.8898 3.80726 13.0398 2.75582C13.1109 2.69102 13.1407 2.58064 13.1895 2.49092C13.0812 2.47917 12.9651 2.43537 12.8667 2.46101C12.7325 2.4959 12.6055 2.57423 12.4858 2.65007C9.93839 4.26409 7.39306 5.88095 4.84385 7.49176C4.69978 7.58291 4.67288 7.66017 4.72775 7.81933C4.9157 8.36232 5.08666 8.91029 5.264 9.4572C5.50009 10.185 5.73618 10.9124 5.97227 11.6398Z" fill="#C6C4BE"/>
</svg>
