<svg width="16" height="10" viewBox="0 0 16 10" fill="none" xmlns="http://www.w3.org/2000/svg">
<path fill-rule="evenodd" clip-rule="evenodd" d="M13.7905 6.28092C14.3003 6.84459 14.8829 7.40827 15.3199 8.05246C15.5384 8.29404 15.7569 8.61614 15.9026 8.93823C16.1211 9.42138 15.9026 9.90453 15.5384 9.90453H13.2078C12.6252 9.98505 12.1154 9.66296 11.7512 9.26033C11.4599 8.93824 11.0957 8.53561 10.8044 8.13299C10.6588 7.97194 10.5131 7.81089 10.3674 7.73036C10.0761 7.48879 9.78479 7.56932 9.5663 7.97194C9.34781 8.37456 9.34781 8.77719 9.34781 9.17981C9.34781 9.82401 9.12932 9.90453 8.6195 9.98505C7.45422 10.0656 6.36175 9.82401 5.2693 9.17981C4.3225 8.61614 3.66702 7.81089 3.01154 6.84459C1.77342 5.07305 0.899458 3.05994 0.098321 1.04682C-0.120171 0.563673 0.025492 0.322099 0.535306 0.322099C1.26361 0.322099 2.06475 0.322099 2.79305 0.322099C3.08438 0.322099 3.30287 0.483148 3.44853 0.805246C3.88551 1.93259 4.39533 2.97941 4.97797 3.94571C5.12363 4.18728 5.34212 4.42885 5.56062 4.67043C5.85194 4.912 6.07043 4.83148 6.14326 4.50938C6.21609 4.26781 6.28892 4.10676 6.28892 3.86518C6.36175 3.05994 6.36175 2.33521 6.21609 1.52997C6.14326 1.04682 5.92477 0.724722 5.48779 0.644197C5.26929 0.563673 5.2693 0.483148 5.41496 0.402623C5.63345 0.161049 5.77911 0 6.14326 0H8.76516C9.20215 0.0805246 9.27498 0.322099 9.34781 0.724722V3.94571C9.34781 4.10676 9.42064 4.67043 9.71196 4.75095C9.93046 4.83148 10.0761 4.5899 10.2218 4.42886C10.8773 3.70413 11.3142 2.81836 11.6784 1.93259C11.824 1.52997 12.0425 1.12735 12.1882 0.724722C12.3339 0.402624 12.4795 0.241574 12.7708 0.241574H15.3199C15.3927 0.241574 15.4656 0.241574 15.5384 0.241574C15.9754 0.322099 16.0482 0.563672 15.9754 0.966295C15.7569 1.69102 15.3927 2.25469 14.9558 2.89889C14.5188 3.54308 14.0818 4.18728 13.6448 4.83148C13.2807 5.47568 13.3535 5.79777 13.7905 6.28092Z" fill="white"/>
</svg>
