<svg width="24" height="24" viewBox="0 0 24 24" fill="none" xmlns="http://www.w3.org/2000/svg">
<path fill-rule="evenodd" clip-rule="evenodd" d="M12.1805 18.3158C10.8571 18.3158 9.53383 17.9549 8.45113 17.2331L5.92481 18.0752L6.76692 15.6692C6.04511 14.5865 5.56391 13.2632 5.56391 11.8195C5.56391 11.5789 5.56391 11.3383 5.56391 11.218C5.92481 7.84962 8.69173 5.20301 12.1805 5.20301C15.6692 5.20301 18.4361 7.84962 18.797 11.3383C18.797 11.4586 18.797 11.5789 18.797 11.8195C18.797 15.4286 15.7895 18.3158 12.1805 18.3158ZM20 11.5789C19.8797 7.36842 16.391 4 12.1805 4C7.96992 4 4.4812 7.24812 4.2406 11.4586C4.2406 11.5789 4.2406 11.6992 4.2406 11.8195C4.2406 13.2632 4.7218 14.7068 5.44361 15.7895L4 20L8.33083 18.6767C9.41353 19.2782 10.7368 19.6391 12.1805 19.6391C16.5113 19.6391 20 16.1504 20 11.8195C20 11.6992 20 11.6992 20 11.5789Z" fill="#C6C4BE"/>
<path fill-rule="evenodd" clip-rule="evenodd" d="M15.6769 12.9901C15.4615 12.874 14.6 12.4098 14.4923 12.4098C14.2769 12.2938 14.1692 12.2938 14.0615 12.5259C13.9538 12.6419 13.6308 13.1061 13.5231 13.2221C13.4154 13.3382 13.3077 13.3382 13.2 13.2221C12.9846 13.1061 12.4462 12.9901 11.8 12.2938C11.2615 11.8296 10.9385 11.2493 10.8308 11.0172C10.7231 10.9012 10.8308 10.7851 10.8308 10.6691C10.9385 10.5531 11.0462 10.437 11.1538 10.321C11.1538 10.321 11.1538 10.321 11.1538 10.2049C11.2615 10.2049 11.2615 10.0889 11.2615 10.0889C11.3692 9.85676 11.3692 9.85676 11.2615 9.74072C11.2615 9.62467 10.9385 8.69629 10.7231 8.34814C10.6154 8 10.5077 8 10.4 8C10.2923 8 10.1846 8 10.0769 8C9.96923 8 9.75385 8.11605 9.53846 8.2321C9.43077 8.46419 9 8.92838 9 9.74072C9 9.97281 9 10.2049 9.10769 10.437C9.21538 11.0172 9.64615 11.5975 9.64615 11.7135C9.75385 11.8296 10.8308 13.8024 12.6615 14.4987C14.3846 15.195 14.3846 14.9629 14.7077 14.9629C15.0308 14.9629 15.7846 14.4987 15.8923 14.0345C16 13.6863 16 13.2221 16 13.2221C15.8923 13.1061 15.7846 13.1061 15.6769 12.9901Z" fill="#C6C4BE"/>
</svg>
