<svg width="24" height="24" viewBox="0 0 24 24" fill="none" xmlns="http://www.w3.org/2000/svg">
<path d="M8.38108 16.1892H6.53911V14.6617H8.38108V12.5726H6.53911V11.0451H8.38108V4.3736H13.3679C14.7456 4.3736 15.8388 4.75547 16.6475 5.51922C17.4711 6.26799 17.883 7.25636 17.883 8.48434C17.883 9.69735 17.4711 10.6857 16.6475 11.4495C15.8238 12.1982 14.7306 12.5726 13.3679 12.5726H10.1332V14.6617H16.0859V16.1892H10.1332V19.1992H8.38108V16.1892ZM13.323 11.0451C14.2215 11.0451 14.9178 10.813 15.412 10.3488C15.9212 9.88454 16.1758 9.27055 16.1758 8.5068C16.1758 7.72809 15.9212 7.09912 15.412 6.61991C14.9178 6.1407 14.2215 5.90109 13.323 5.90109H10.1332V11.0451H13.323Z" fill="black"/>
</svg>
